<svg xmlns="http://www.w3.org/2000/svg" id="Layer_1" viewBox="0 0 844.04 458.71">
  <defs>
    
  </defs>
  <polygon points="340.45 0 272.91 195.89 245.38 0 166.6 0 92.38 197.42 86.56 130.42 73.2 0 0 0 39.3 273.47 120.4 273.47 193.08 90.21 221.89 273.47 303.88 273.47 409 0 340.45 0" fill="rgb(255, 255, 255)"/>
  <path d="M844.03,92.62c-.16-1.83-1.4-3.37-3.15-3.92-21.02-6.56-41.74-3.62-65.23,9.28l-1.68.94c-6.94,3.92-14.33,8.71-22.62,14.65-20.21,14.49-23.32,16.72-21.82,21.47,1.25,3.96,5.25,4,9.88,4.05,6.48.06,16.25.16,23.91,6.54,1.42,1.19,2.91,2.68,4.24,4.23,3.42,4.48,8.9,13.66,7.76,19.69-.36,1.91-1.39,3.33-3.42,4.56-.07.04-7.13,4.23-21.89-3.73-3.22-1.86-6.61-3.82-10.15-5.91l-7.45-4.44c-16.4-9.87-31.18-19.5-43.92-28.61l-3.7-2.68c-22.24-16.23-38.83-31.43-49.32-45.18-1.48-1.94-4.22-2.35-6.2-.95-1.99,1.41-2.5,4.13-1.17,6.16,13.23,20.15,29.73,38.82,50.48,57.11l7.78,6.68c3.44,2.87,7,5.76,10.71,8.67l-9.34-3.43c-21.59-8.53-40.03-19.75-70.59-38.35-5.39-3.28-11.16-6.79-17.39-10.56-2.07-1.25-4.77-.65-6.11,1.38-1.33,2.03-.83,4.75,1.15,6.16,25.54,18.26,43.24,30.02,58.86,40.39,14.57,9.68,26.08,17.33,39.42,27.26l18.09,11.95c.2.13,20.63,12.89,26.53,44.59,1.8,8.03,2.67,19.22-3.47,26.96-4.91,6.18-13.72,9.37-26.17,9.46-13.29.11-26.84,1.89-41.46,5.45l-3.48.88c-20.09,5.23-39.82,13.19-58.9,20.9-6.2,2.5-12.42,5.01-18.68,7.45l-5.94,2.28c-4.74,1.8-9.53,3.54-14.33,5.18l-2.17.74c-22.09,7.41-41.09,11.34-59.78,12.39-16.25.9-28.07,3.82-40.84,10.1l-4.36,2.24s-.02.02-.04.03c-.01,0-.02,0-.03.01-5.95,3.2-12.18,7.03-19.38,11.48-18.35,11.31-43.48,26.81-88.83,47.19-2.26,1.02-3.28,3.68-2.27,5.95.7,1.59,2.21,2.57,3.84,2.68.69.04,1.41-.08,2.1-.37,36.59-16.03,68.37-28.29,97.15-37.5,0,0,0,0,0,0l6.1-1.93c50.78-15.7,81.38-18.01,105.96-19.86l11.01-.87c20.78-1.79,40.66-4.54,70.7-19.03-.09.63-.17,1.29-.26,1.97l-.61,5.15c-.58,5.27-1.16,11.35-1.77,17.81-.85,8.98-1.73,18.26-2.79,27.19l-1,7.86c-.48,3.46-.99,6.79-1.54,9.9-3.58,20.27-8.73,25.55-12.41,26.41-12.2,2.89-37.68-31.65-48.55-46.39-1.46-1.99-4.24-2.43-6.26-1-2,1.43-2.5,4.21-1.1,6.24l3.55,5.15c18.06,26.24,22.92,33.3,39.36,52.13l1.12,1.29c1.99,2.26,4.14,4.7,6.51,7.38,3.44,3.88,7.01,5.01,9.68,5.19.37.02.72.03,1.05.02,5.31-.12,10.6-3.56,16.32-10.68l3.85-5.29c12.69-18.96,25.43-52.6,36.22-83.02l4.62-13.04c1.26-3.53,4.6-12.9,5.56-14.37,17.95-23.84,41.49-35.78,62.26-46.31,13.41-6.81,25-12.68,33.44-20.85l1.88-1.92c3.97-4.31,6.72-8.95,8.38-14.16.09-.19.16-.4.22-.61l.46-1.78c3.61-14.58-.85-24.96-.94-25.17-.14-.37-.25-.67-.34-.85-2.1-5.7-3.7-11.83-4.72-18l-1.25-10.28c-.57-7.48-.42-15.07.44-22.55h0c0-.08.02-.16.03-.24,1.53-12.32,4.97-22.71,6.37-26.55,7.9-20.89,21.52-36.8,39.41-46,1.63-.84,2.59-2.58,2.44-4.4" fill="rgb(0, 148, 170)"/>
  <path d="M446.96,0l-58.72,153.38h64.26c14.52,0,24.18,2.92,29.51,8.95,4.49,5.07,6.07,12.38,4.85,22.37-3.73,30.37-31.55,34.22-43.34,34.46h-81.09l-20.84,54.18h86.23c5.07.11,9.89.18,15.4,0,50.03-1.85,106.33-26.88,114.26-91.56,3.3-26.93-.84-46.52-12.66-59.86-13.27-15.01-36.82-22.46-71.96-22.79l-4.62-.04,17.24-44.81h97.17L603.52,0h-156.56Z" fill="rgb(255, 255, 255)"/>
  <path d="M57.14,333.08c0-2.95-1.73-4.57-5.43-4.57h-6.64l-1.68,10.69h6.64c4.45,0,7.11-2.42,7.11-6.12M36.75,320.08h16.64c9.71,0,13.81,4.45,13.81,11.67,0,9.65-7.05,15.89-18.14,15.89h-6.99l-2.08,12.88h-9.65l6.41-40.44Z" fill="rgb(255, 255, 255)"/>
  <path d="M83.07,353.3c2.95,0,5.37-1.56,6.24-5.72l2.71-17.1h9.48l-4.74,30.04h-9.47l.98-6.36h-.4c-.98,2.95-4.33,6.93-10.28,6.93s-9.71-3.87-8.55-11.44l3.01-19.18h9.47l-2.6,16.87c-.75,4.27,1.21,5.95,4.16,5.95" fill="rgb(255, 255, 255)"/>
  <path d="M126.97,343.71c0-4.16-2.31-5.95-5.43-5.95-4.68,0-7.57,4.57-7.57,9.19s2.37,6.3,5.37,6.3c4.74,0,7.62-4.51,7.62-9.53M112.7,356.48l-.58,4.04h-9.47l6.41-40.44h9.47l-2.31,14.44h.06c1.04-2.25,4.74-4.62,9.13-4.62,5.26,0,10.69,3.52,10.69,11.84,0,10.17-6.35,19.35-15.65,19.35-4.62,0-7.17-2.37-7.74-4.62" fill="rgb(255, 255, 255)"/>
  <polygon points="144.29 320.08 153.76 320.08 147.35 360.52 137.88 360.52 144.29 320.08" fill="rgb(255, 255, 255)"/>
  <g>
    <path d="M158.73,322.62c0-2.83,2.37-5.03,5.08-5.03s5.09,2.19,5.09,5.03-2.43,4.97-5.09,4.97-5.08-2.2-5.08-4.97M157.92,330.48h9.47l-4.74,30.04h-9.47l4.74-30.04Z" fill="rgb(255, 255, 255)"/>
    <path d="M169.18,348.33c0-10.11,7.16-18.43,17.85-18.43,5.37,0,12.71,2.02,12.01,12.71h-8.32c-.06-3.35-2.02-4.8-5.03-4.8-5.26,0-7.62,5.03-7.62,9.47,0,3.52,1.5,5.89,5.31,5.89,3.12,0,5.37-1.68,6.53-4.74h8.32c-2.54,10.4-10.69,12.65-16,12.65-6.47,0-13.05-3.29-13.05-12.77" fill="rgb(255, 255, 255)"/>
    <path d="M206.49,322.62c0-2.83,2.37-5.03,5.08-5.03s5.09,2.19,5.09,5.03-2.43,4.97-5.09,4.97-5.08-2.2-5.08-4.97M205.68,330.48h9.47l-4.74,30.04h-9.48l4.74-30.04Z" fill="rgb(255, 255, 255)"/>
    <path d="M238.9,343.88c0-4.33-2.37-6.12-5.49-6.12-4.56,0-7.45,4.5-7.45,9.42,0,4.28,2.25,6.07,5.37,6.07,4.68,0,7.57-4.56,7.57-9.36M216.89,349.08c0-10.34,6.35-19.18,15.37-19.18,4.74,0,7.28,2.37,7.86,4.62h.06l2.25-14.44h9.47l-6.41,40.44h-9.47l.58-4.04c-1.1,2.25-4.68,4.62-9.18,4.62-5.32,0-10.52-3.47-10.52-12.02" fill="rgb(255, 255, 255)"/>
    <path d="M270.37,350.06l.58-3c-1.04.92-2.54.98-3.81,1.27l-3.23.58c-1.85.35-3.12,1.27-3.12,2.95,0,1.27.69,2.54,3.29,2.54,3.18,0,5.89-2.02,6.3-4.33M251.08,353.76c0-5.95,4.74-9.07,12.31-10.28l4.79-.81c2.66-.41,3.52-.98,3.81-2.2l.12-.58c.46-2.02-.75-3.18-3.47-3.18-2.25,0-4.45.69-4.97,3.41l-.11.69h-8.89l.23-1.56c.92-5.84,5.14-9.36,14.85-9.36s12.71,3.35,11.67,9.7l-3.35,20.91h-9.01l.86-5.26h-.41c-.81,1.56-3.46,5.84-10.17,5.84-4.16,0-8.26-1.68-8.26-7.34" fill="rgb(255, 255, 255)"/>
    <path d="M306.36,343.88c0-4.33-2.37-6.12-5.49-6.12-4.56,0-7.45,4.5-7.45,9.42,0,4.28,2.25,6.07,5.37,6.07,4.68,0,7.57-4.56,7.57-9.36M284.35,349.08c0-10.34,6.35-19.18,15.37-19.18,4.74,0,7.28,2.37,7.86,4.62h.06l2.25-14.44h9.47l-6.41,40.44h-9.47l.58-4.04c-1.1,2.25-4.68,4.62-9.18,4.62-5.32,0-10.52-3.47-10.52-12.02" fill="rgb(255, 255, 255)"/>
    <path d="M341.07,342.9c.35-3-.81-5.83-5.14-5.83s-6.12,2.54-6.99,5.83h12.13ZM319.58,348.04c0-10.17,6.58-18.14,17.45-18.14,6.99,0,12.71,3.12,12.71,12.19,0,1.62-.12,4.1-.87,5.83h-20.39c.17,5.03,2.2,6.36,5.49,6.36,3.76,0,5.03-1.68,5.95-3.7h8.32c-2.48,6.93-7.97,10.75-15.54,10.75-6.76,0-13.11-3.29-13.11-13.29" fill="rgb(255, 255, 255)"/>
  </g>
</svg>